# xmcd
#
# Track frame offsets:
#	150
#	7710
#	19017
#	26921
#	40812
#	47248
#	62922
#	68039
#	75000
#	87243
#	95774
#	112512
#	119872
#	132715
#	142495
#	151201
#	155841
#	161768
#	173687
#	179241
#	193973
#	199046
#	210214
#	217472
#	224906
#	234525
#	249946
#
# Disc length: 3503 seconds
#
# Revision: 2
# Processed by: cddbd v1.5.2PL0 Copyright (c) Steve Scherf et al.
# Submitted via: audiograbber 1.83.01
#
DISCID=950dad1b
DTITLE=Melauner Sänger und Musikanten - Melauner Sänger und Musikanten
DYEAR=2008
DGENRE=Folklore
TTITLE0=Melauner-Walzer
TTITLE1=Mir lebfrischen Hirten  
TTITLE2=Meraner Polka 
TTITLE3=Der Wurzengraber  
TTITLE4=Michlpolka  
TTITLE5=Habm die Schneider Tinzltag   
TTITLE6=Maultrommeltanzl 
TTITLE7=Drehleierlandler 
TTITLE8=Binderlied  
TTITLE9=Rauschwalzer
TTITLE10=Untn am Bach
TTITLE11=Raffelelandler 
TTITLE12=Mein Vater
TTITLE13=Böhmischer Walzer   
TTITLE14=Der Ganswirt von Klausen
TTITLE15=Schalmeitanzl 
TTITLE16=Raffeleboarischer
TTITLE17=Die Hammerschmiedgselln  
TTITLE18=Feldthurner-Marsch 
TTITLE19=Ach Himmel es ist verspielt
TTITLE20=Sterzinger Marsch 
TTITLE21=Isch denn des nöt a Lebn  
TTITLE22=Schützentanz  
TTITLE23=Des Jagn 
TTITLE24=Boarischer
TTITLE25=Bei meiner Liabsten 
TTITLE26=Alphornfanfare 
EXTD=
EXTT0=
EXTT1=
EXTT2=
EXTT3=
EXTT4=
EXTT5=
EXTT6=
EXTT7=
EXTT8=
EXTT9=
EXTT10=
EXTT11=
EXTT12=
EXTT13=
EXTT14=
EXTT15=
EXTT16=
EXTT17=
EXTT18=
EXTT19=
EXTT20=
EXTT21=
EXTT22=
EXTT23=
EXTT24=
EXTT25=
EXTT26=
PLAYORDER=
